<svg xmlns="http://www.w3.org/2000/svg" width="19.55" height="19.506" viewBox="0 0 19.55 19.506">
  <path id="Subtraction_24" data-name="Subtraction 24" d="M1658.6-448.515a2.421,2.421,0,0,1-1.423-.459l-.005,0a2.51,2.51,0,0,1-.953-2.842l1.159-3.718-3.092-2.4a2.548,2.548,0,0,1-.87-2.844l0-.007a2.424,2.424,0,0,1,2.316-1.69h3.85l1.18-3.782,0-.008a2.444,2.444,0,0,1,2.335-1.751,2.444,2.444,0,0,1,2.335,1.751l1.167,3.746h3.8a2.428,2.428,0,0,1,2.3,1.69l0,.006a2.578,2.578,0,0,1-.868,2.858l-3.031,2.29,1.122,3.849,0,.014a2.51,2.51,0,0,1-.943,2.84,2.417,2.417,0,0,1-1.381.449,2.446,2.446,0,0,1-1.457-.5l-3.077-2.328-3.051,2.386A2.418,2.418,0,0,1,1658.6-448.515Zm4.471-4.626a2.419,2.419,0,0,1,1.46.486l4.008,2.938-1.485-4.947v-.005a2.57,2.57,0,0,1,.879-2.794l2.969-2.246v-.924h-3.964a2.446,2.446,0,0,1-2.331-1.739l-1.535-4.924-1.548,4.962,0,.006a2.451,2.451,0,0,1-2.335,1.739h-3.946v.926l3,2.244a2.574,2.574,0,0,1,.88,2.8l-1.495,4.8,3.977-2.821.011-.008A2.415,2.415,0,0,1,1663.072-453.141Z" transform="translate(-1653.282 468.021)" fill="#8d2528"/>
</svg>
